<svg width="461" height="65" viewBox="0 0 461 65" fill="none" xmlns="http://www.w3.org/2000/svg">
<path d="M0 64.48H64V0.48H0V64.48ZM84.047 60V12H92.687V36H97.807V12H106.447V60H97.807V44.64H92.687V60H84.047ZM114.901 60V24.8H122.901V60H114.901ZM114.901 22.24V13.92H122.901V22.24H114.901ZM130.656 64.48L133.216 51.36H141.216L138.656 64.48H130.656ZM164.339 60V24.8H172.339V60H164.339ZM164.339 22.24V13.92H172.339V22.24H164.339ZM181.053 28L183.101 21.216H179.901V12H188.541V21.216L186.493 28H181.053ZM196.401 60V24.8H204.401V30.176L202.993 28.32C203.676 26.9333 204.625 25.8667 205.841 25.12C207.057 24.352 208.561 23.968 210.353 23.968C212.188 23.968 213.926 24.4693 215.569 25.472C217.212 26.4747 218.268 28.256 218.737 30.816L216.625 30.304C217.201 28.32 218.15 26.7733 219.473 25.664C220.796 24.5333 222.556 23.968 224.753 23.968C226.14 23.968 227.473 24.2453 228.753 24.8C230.054 25.3547 231.121 26.3147 231.953 27.68C232.785 29.024 233.201 30.88 233.201 33.248V60H225.201V35.168C225.201 34.208 224.924 33.44 224.369 32.864C223.814 32.2667 223.025 31.968 222.001 31.968C220.977 31.968 220.188 32.2667 219.633 32.864C219.078 33.44 218.801 34.208 218.801 35.168V60H210.801V35.168C210.801 34.208 210.524 33.44 209.969 32.864C209.414 32.2667 208.625 31.968 207.601 31.968C206.577 31.968 205.788 32.2667 205.233 32.864C204.678 33.44 204.401 34.208 204.401 35.168V60H196.401ZM279.773 46.624V49.184C279.773 52.7253 278.706 55.584 276.573 57.76C274.44 59.936 271.56 61.024 267.933 61.024C264.328 61.024 261.448 59.936 259.293 57.76C257.16 55.584 256.093 52.7253 256.093 49.184V22.816C256.093 19.2533 257.16 16.3947 259.293 14.24C261.448 12.064 264.328 10.976 267.933 10.976C271.56 10.976 274.44 12.064 276.573 14.24C278.706 16.3947 279.773 19.2533 279.773 22.816V25.376H271.133V22.816C271.133 21.856 270.856 21.088 270.301 20.512C269.746 19.9147 268.957 19.616 267.933 19.616C266.909 19.616 266.12 19.9147 265.565 20.512C265.01 21.088 264.733 21.856 264.733 22.816V49.184C264.733 50.144 265.01 50.9227 265.565 51.52C266.12 52.096 266.909 52.384 267.933 52.384C268.957 52.384 269.746 52.096 270.301 51.52C270.856 50.9227 271.133 50.144 271.133 49.184V46.624H279.773ZM292.626 60.832C289.746 60.832 287.548 59.936 286.034 58.144C284.54 56.3307 283.794 54.0373 283.794 51.264C283.794 49.664 284.028 48.3093 284.498 47.2C284.967 46.0907 285.586 45.1627 286.354 44.416C287.143 43.648 288.018 42.9973 288.978 42.464C290.066 41.8453 291.186 41.3333 292.338 40.928C293.49 40.5013 294.556 40.0853 295.538 39.68C296.519 39.2533 297.308 38.7413 297.906 38.144C298.524 37.5467 298.833 36.768 298.833 35.808V35.168C298.833 34.208 298.556 33.44 298.002 32.864C297.447 32.2667 296.658 31.968 295.634 31.968C294.61 31.968 293.82 32.2667 293.266 32.864C292.711 33.44 292.434 34.208 292.434 35.168V37.088H284.434V35.808C284.434 32.2453 285.447 29.3867 287.474 27.232C289.5 25.056 292.22 23.968 295.634 23.968C297.916 23.968 299.89 24.4587 301.554 25.44C303.239 26.4213 304.54 27.808 305.458 29.6C306.375 31.3707 306.834 33.44 306.834 35.808V60H298.833V54.496L300.242 56.288C299.58 57.76 298.588 58.8907 297.266 59.68C295.964 60.448 294.418 60.832 292.626 60.832ZM295.25 53.472C296.146 53.472 296.967 53.2053 297.714 52.672C298.46 52.1387 298.833 51.1893 298.833 49.824V44.896C298.279 45.3867 297.596 45.7707 296.786 46.048C295.975 46.304 295.143 46.6453 294.29 47.072C293.436 47.4773 292.807 47.936 292.402 48.448C291.996 48.9387 291.794 49.5467 291.794 50.272C291.794 51.104 292.082 51.8507 292.658 52.512C293.234 53.152 294.098 53.472 295.25 53.472ZM313.901 60V24.8H321.901V30.56L320.429 28.832C321.133 27.3173 322.125 26.1973 323.405 25.472C324.685 24.7253 326.168 24.352 327.853 24.352H329.453V32.352H325.101C324.077 32.352 323.288 32.5867 322.733 33.056C322.178 33.504 321.901 34.208 321.901 35.168V60H313.901ZM343.39 60.832C341.107 60.832 339.123 60.3413 337.438 59.36C335.774 58.3573 334.483 56.9707 333.566 55.2C332.648 53.4293 332.19 51.36 332.19 48.992V35.808C332.19 33.44 332.648 31.3707 333.566 29.6C334.483 27.808 335.774 26.4213 337.438 25.44C339.123 24.4587 341.107 23.968 343.39 23.968C346.824 23.968 349.544 25.056 351.55 27.232C353.576 29.3867 354.59 32.2453 354.59 35.808V48.992C354.59 52.5333 353.576 55.392 351.55 57.568C349.544 59.744 346.824 60.832 343.39 60.832ZM343.39 52.832C344.414 52.832 345.203 52.544 345.758 51.968C346.312 51.3707 346.59 50.592 346.59 49.632V35.168C346.59 34.208 346.312 33.44 345.758 32.864C345.203 32.2667 344.414 31.968 343.39 31.968C342.366 31.968 341.576 32.2667 341.022 32.864C340.467 33.44 340.19 34.208 340.19 35.168V49.632C340.19 50.592 340.467 51.3707 341.022 51.968C341.576 52.544 342.366 52.832 343.39 52.832ZM361.089 60V12H369.089V60H361.089ZM376.651 60V24.8H384.651V60H376.651ZM376.651 22.24V13.92H384.651V22.24H376.651ZM392.214 60V24.8H400.214V30.368L398.742 28.768C399.446 27.168 400.438 25.9733 401.718 25.184C402.998 24.3733 404.48 23.968 406.166 23.968C408.832 23.968 410.902 24.96 412.374 26.944C413.867 28.9067 414.614 31.648 414.614 35.168V60H406.614V35.168C406.614 34.208 406.336 33.44 405.782 32.864C405.227 32.2667 404.438 31.968 403.414 31.968C402.39 31.968 401.6 32.2667 401.046 32.864C400.491 33.44 400.214 34.208 400.214 35.168V60H392.214ZM428.688 60.832C425.808 60.832 423.611 59.936 422.096 58.144C420.603 56.3307 419.856 54.0373 419.856 51.264C419.856 49.664 420.091 48.3093 420.56 47.2C421.029 46.0907 421.648 45.1627 422.416 44.416C423.205 43.648 424.08 42.9973 425.04 42.464C426.128 41.8453 427.248 41.3333 428.4 40.928C429.552 40.5013 430.619 40.0853 431.6 39.68C432.581 39.2533 433.371 38.7413 433.968 38.144C434.587 37.5467 434.896 36.768 434.896 35.808V35.168C434.896 34.208 434.619 33.44 434.064 32.864C433.509 32.2667 432.72 31.968 431.696 31.968C430.672 31.968 429.883 32.2667 429.328 32.864C428.773 33.44 428.496 34.208 428.496 35.168V37.088H420.496V35.808C420.496 32.2453 421.509 29.3867 423.536 27.232C425.563 25.056 428.283 23.968 431.696 23.968C433.979 23.968 435.952 24.4587 437.616 25.44C439.301 26.4213 440.603 27.808 441.52 29.6C442.437 31.3707 442.896 33.44 442.896 35.808V60H434.896V54.496L436.304 56.288C435.643 57.76 434.651 58.8907 433.328 59.68C432.027 60.448 430.48 60.832 428.688 60.832ZM431.312 53.472C432.208 53.472 433.029 53.2053 433.776 52.672C434.523 52.1387 434.896 51.1893 434.896 49.824V44.896C434.341 45.3867 433.659 45.7707 432.848 46.048C432.037 46.304 431.205 46.6453 430.352 47.072C429.499 47.4773 428.869 47.936 428.464 48.448C428.059 48.9387 427.856 49.5467 427.856 50.272C427.856 51.104 428.144 51.8507 428.72 52.512C429.296 53.152 430.16 53.472 431.312 53.472ZM451.436 46.56V12H460.076V46.56H451.436ZM451.436 60V50.4H460.076V60H451.436Z" fill="#EF6079"/>
</svg>
